# xmcd
#
# Track frame offsets:
# 150
# 17431
# 36202
# 53603
# 67372
# 84746
# 100068
# 117112
# 133572
# 150340
# 168606
# 187759
# 209716
#
# Disc length: 3836 seconds
#
#
# Revision: 0
# Processed by: cddbd v1.5.2PL0 Copyright (c) Steve Scherf et al.
# Submitted via: FreeRIP 2.95 
#
DISCID=a90efa0d
DTITLE=Lance Christopher - Reconstruction
DYEAR=2006
DGENRE=Country
TTITLE0=Joy Unspeakable
TTITLE1=Autobiography (it's love)
TTITLE2=Shout Out
TTITLE3=Healing Word
TTITLE4=Rainy Day
TTITLE5=The Cross of Jesus
TTITLE6=I Run
TTITLE7=How I Get From Here To You
TTITLE8=I Got Joy
TTITLE9=I Believe You Do
TTITLE10=The Daddy Song
TTITLE11=Tumbleweeds
TTITLE12=Data
EXTD=
EXTT0=
EXTT1=
EXTT2=
EXTT3=
EXTT4=
EXTT5=
EXTT6=
EXTT7=
EXTT8=
EXTT9=
EXTT10=
EXTT11=
EXTT12=
PLAYORDER=
